<svg xmlns="http://www.w3.org/2000/svg" xmlns:xlink="http://www.w3.org/1999/xlink" width="500" zoomAndPan="magnify" viewBox="0 0 375 374.999991" height="500" preserveAspectRatio="xMidYMid meet" version="1.0"><defs><g/><clipPath id="741c1551a5"><path d="M 1 95 L 55 95 L 55 115 L 1 115 Z M 1 95 " clip-rule="nonzero"/></clipPath><clipPath id="d7351f5ed6"><path d="M 0.675781 114.285156 L 1.027344 94.511719 L 54.949219 95.472656 L 54.597656 115.242188 Z M 0.675781 114.285156 " clip-rule="nonzero"/></clipPath><clipPath id="7dc4c68f69"><path d="M 0.675781 114.285156 L 1.027344 94.511719 L 54.949219 95.472656 L 54.597656 115.242188 Z M 0.675781 114.285156 " clip-rule="nonzero"/></clipPath><clipPath id="3a639c7db8"><path d="M 0.675781 114.277344 L 1.027344 94.433594 L 54.828125 95.390625 L 54.476562 115.234375 Z M 0.675781 114.277344 " clip-rule="nonzero"/></clipPath><clipPath id="fc2cbf76a4"><path d="M 17 9 L 233 9 L 233 117.960938 L 17 117.960938 Z M 17 9 " clip-rule="nonzero"/></clipPath><clipPath id="0093375cdf"><rect x="0" width="216" y="0" height="109"/></clipPath><clipPath id="c8c735f7c1"><path d="M 101.941406 18.878906 L 166.34375 18.878906 L 166.34375 50.777344 L 101.941406 50.777344 Z M 101.941406 18.878906 " clip-rule="nonzero"/></clipPath><clipPath id="ff5e476054"><path d="M 123 0.441406 L 145 0.441406 L 145 14 L 123 14 Z M 123 0.441406 " clip-rule="nonzero"/></clipPath><clipPath id="95b203becb"><path d="M 196 95 L 250.480469 95 L 250.480469 117 L 196 117 Z M 196 95 " clip-rule="nonzero"/></clipPath><clipPath id="0189fcec63"><path d="M 196.171875 115.59375 L 196.523438 95.824219 L 250.445312 96.78125 L 250.09375 116.550781 Z M 196.171875 115.59375 " clip-rule="nonzero"/></clipPath><clipPath id="e1e7f04fab"><path d="M 0 0.640625 L 54.480469 0.640625 L 54.480469 21.761719 L 0 21.761719 Z M 0 0.640625 " clip-rule="nonzero"/></clipPath><clipPath id="0bb6c45e9b"><path d="M 0.171875 20.59375 L 0.523438 0.824219 L 54.445312 1.78125 L 54.09375 21.550781 Z M 0.171875 20.59375 " clip-rule="nonzero"/></clipPath><clipPath id="55f1cd949a"><path d="M 53.964844 21.550781 L 54.316406 1.777344 L 0.394531 0.820312 L 0.0429688 20.589844 Z M 53.964844 21.550781 " clip-rule="nonzero"/></clipPath><clipPath id="9673525855"><path d="M 53.964844 21.542969 L 54.320312 1.699219 L 0.519531 0.742188 L 0.167969 20.585938 Z M 53.964844 21.542969 " clip-rule="nonzero"/></clipPath><clipPath id="5ca00d5199"><rect x="0" width="55" y="0" height="22"/></clipPath><clipPath id="405aa11121"><rect x="0" width="251" y="0" height="118"/></clipPath></defs><g transform="matrix(1, 0, 0, 1, 62, 129)"><g clip-path="url(#405aa11121)"><g clip-path="url(#741c1551a5)"><g clip-path="url(#d7351f5ed6)"><g clip-path="url(#7dc4c68f69)"><g clip-path="url(#3a639c7db8)"><path fill="#ffbd59" d="M 49.027344 96.011719 C 50.148438 96.519531 53.21875 97.007812 53.21875 97.007812 C 52.089844 96.066406 49.027344 96.011719 49.027344 96.011719 Z M 54.128906 97.382812 C 54.128906 97.382812 51.472656 98.765625 47.308594 95.679688 C 47.308594 95.679688 51.253906 94.09375 54.128906 97.382812 Z M 51.238281 100.949219 C 50.328125 102.214844 49.972656 105.695312 49.972656 105.695312 C 50.753906 104.082031 51.238281 100.949219 51.238281 100.949219 Z M 46.46875 104.898438 C 45.878906 105.710938 45.160156 106.1875 45.0625 108.171875 C 45 109.464844 44.0625 110.71875 44.0625 110.71875 C 44.0625 110.71875 45.367188 109.363281 45.394531 107.933594 C 45.417969 106.507812 46.46875 104.898438 46.46875 104.898438 Z M 41.648438 107.867188 C 41.648438 107.867188 39.789062 110.691406 38.785156 111.667969 C 38.753906 111.699219 41.429688 109.964844 41.648438 107.867188 Z M 36.542969 108.683594 C 32.492188 110.351562 31.660156 113.109375 31.738281 113 C 32.992188 111.191406 36.542969 108.683594 36.542969 108.683594 Z M 31.128906 109.011719 C 31.128906 109.011719 25.960938 111.066406 25.601562 113.839844 C 25.601562 113.839844 26.929688 111.34375 31.128906 109.011719 Z M 25.125 108.765625 C 23.3125 109.121094 19.527344 111.328125 19.527344 111.328125 C 20.742188 110.960938 25.125 108.765625 25.125 108.765625 Z M 19.9375 107.480469 C 19.199219 107.609375 14.890625 109.207031 14.890625 109.207031 C 16.789062 109.265625 19.9375 107.480469 19.9375 107.480469 Z M 14.957031 105.496094 C 14.957031 105.496094 9.71875 106.207031 8.566406 106.515625 C 8.566406 106.515625 13.058594 106.59375 14.957031 105.496094 Z M 12.09375 102.527344 C 12.09375 102.527344 9.203125 101.242188 7.277344 99.269531 C 5.351562 97.292969 3.835938 96.914062 3.835938 96.914062 C 3.835938 96.914062 5.605469 97.652344 7.160156 99.578125 C 8.710938 101.503906 12.09375 102.527344 12.09375 102.527344 Z M 17.082031 103.976562 C 15.34375 101.335938 14.851562 97.109375 14.851562 97.109375 C 14.355469 100.878906 17.082031 103.976562 17.082031 103.976562 Z M 22.417969 106.621094 C 22.382812 106.605469 22.351562 106.59375 22.316406 106.582031 C 22.378906 106.605469 22.417969 106.621094 22.417969 106.621094 Z M 22.195312 106.527344 C 22.117188 106.488281 22.023438 106.445312 21.917969 106.382812 C 20.839844 105.734375 20.972656 104.355469 20.609375 102.378906 C 20.195312 100.132812 18.78125 99.132812 18.78125 99.132812 C 19.363281 99.792969 20.226562 102.105469 20.476562 104.191406 C 20.617188 105.355469 21.335938 106.054688 21.917969 106.382812 C 22.003906 106.433594 22.097656 106.480469 22.195312 106.527344 Z M 28.070312 107.285156 C 26.195312 106.933594 25.929688 105.433594 25.40625 104.28125 C 24.863281 103.078125 24.402344 101.78125 24.402344 101.78125 C 24.734375 102.949219 24.539062 103.683594 25.582031 105.542969 C 26.625 107.402344 28.171875 107.304688 28.070312 107.285156 Z M 34.679688 106.835938 C 31.84375 105.929688 31.367188 105.136719 30.679688 103.847656 C 29.996094 102.5625 29.09375 102.261719 29.09375 102.261719 C 29.09375 102.261719 30.242188 103.105469 30.917969 104.789062 C 31.597656 106.472656 34.71875 106.847656 34.679688 106.835938 Z M 39.390625 105.328125 C 38.019531 105.308594 37.171875 104.449219 36.066406 103.539062 C 34.964844 102.632812 33.617188 102.609375 33.617188 102.609375 C 33.617188 102.609375 35.273438 103.1875 36.5 104.425781 C 37.726562 105.664062 39.546875 105.328125 39.390625 105.328125 Z M 43.339844 103.28125 C 43.390625 103.273438 43.160156 103.292969 42.789062 103.265625 C 41.789062 103.09375 40.753906 102.226562 40.175781 101.765625 C 39.496094 101.21875 37.730469 100.558594 37.730469 100.558594 C 37.730469 100.558594 39.183594 101.289062 40.347656 102.460938 C 41.089844 103.210938 42.136719 103.214844 42.789062 103.265625 C 42.976562 103.296875 43.160156 103.304688 43.339844 103.28125 Z M 48.246094 100.167969 C 47.246094 100.042969 45.910156 100.042969 44.269531 99.03125 C 43.492188 98.546875 42.824219 98.257812 42.34375 98.085938 C 42.070312 97.960938 41.796875 97.875 41.496094 97.851562 C 41.496094 97.851562 42.003906 98.074219 42.539062 98.265625 C 43.191406 98.566406 43.742188 99.148438 44.867188 99.796875 C 46.460938 100.710938 48.492188 100.195312 48.246094 100.167969 Z M 53.890625 97.601562 C 53.972656 97.527344 54.050781 97.457031 54.128906 97.382812 C 54.066406 97.449219 54 97.515625 53.9375 97.582031 L 53.929688 97.59375 C 53.15625 98.394531 52.371094 99.144531 51.578125 99.84375 C 53.3125 105.84375 49.296875 107.105469 49.296875 107.105469 C 49.097656 103.574219 50.273438 101.359375 50.996094 100.34375 C 49.699219 101.445312 48.378906 102.414062 47.046875 103.261719 C 46.910156 103.996094 47.398438 105.140625 47.089844 108.023438 C 46.730469 111.40625 42.042969 112.375 42.042969 112.375 C 42.042969 112.375 43.183594 111.792969 43.765625 108.640625 C 44.167969 106.472656 45.636719 104.570312 46.511719 103.597656 C 45.269531 104.355469 44.023438 105.015625 42.777344 105.578125 C 42.320312 106.40625 42.484375 107.757812 42.082031 110.195312 C 41.660156 112.746094 36.828125 113.5625 36.828125 113.5625 C 38.90625 109.085938 41.835938 106.339844 42.636719 105.640625 C 41.609375 106.101562 40.585938 106.496094 39.570312 106.835938 L 38.589844 107.535156 C 37.445312 108.53125 36.582031 110.546875 35.121094 112.253906 C 33.660156 113.960938 30.480469 114.804688 30.480469 114.804688 C 30.480469 114.804688 29.683594 113.210938 32.285156 110.699219 C 33.867188 109.171875 35.84375 108.335938 37.160156 107.910156 L 39.066406 107 C 36.859375 107.695312 34.691406 108.125 32.613281 108.335938 C 31.890625 108.988281 30.816406 110.429688 29.398438 112.152344 C 27.628906 114.304688 24.535156 114.699219 24.535156 114.699219 C 24.867188 111.378906 27.933594 109.621094 30.300781 108.753906 C 27.550781 109.742188 23.425781 111.828125 23.425781 111.828125 C 25.703125 110.335938 28.527344 109.054688 29.824219 108.5 C 28.699219 108.515625 27.613281 108.46875 26.578125 108.375 C 25.875 108.710938 24.765625 109.792969 22.53125 110.957031 C 19.910156 112.324219 18.183594 111.953125 18.183594 111.953125 C 19.574219 108.972656 23.675781 108.386719 25.722656 108.28125 C 25.605469 108.265625 25.484375 108.253906 25.371094 108.238281 C 23.839844 108.03125 22.496094 107.726562 21.320312 107.371094 C 18.648438 110.773438 13.710938 109.613281 13.710938 109.613281 C 15.144531 106.8125 18.417969 106.785156 20.207031 107.003906 C 18.820312 106.503906 17.710938 105.945312 16.855469 105.417969 C 10.710938 108.492188 7.136719 106.710938 7.136719 106.710938 C 9.777344 104.019531 16.285156 105.289062 16.828125 105.402344 C 16.464844 105.175781 16.148438 104.960938 15.871094 104.757812 C 15.667969 104.601562 13.816406 104.097656 11.65625 104.167969 C 9.496094 104.238281 7.914062 103.644531 6.179688 102.152344 C 6.179688 102.152344 8.339844 103.921875 10.832031 103.863281 C 13.324219 103.808594 13.453125 103.929688 15.066406 104.242188 C 14.207031 103.78125 13.050781 103.316406 13.050781 103.316406 C 11.433594 103.109375 9.128906 102.648438 6.417969 100.527344 C 2.777344 97.675781 3.25 96.554688 1.019531 95.007812 C 1.019531 95.007812 5.96875 96 8.046875 97.84375 C 9.9375 99.523438 12.273438 101.960938 13.976562 103.175781 L 14.140625 103.292969 C 14.25 103.367188 14.355469 103.4375 14.457031 103.5 C 14.445312 103.496094 14.433594 103.496094 14.421875 103.492188 L 14.5 103.550781 C 14.472656 103.515625 14.457031 103.5 14.457031 103.5 C 14.457031 103.5 14.5 103.535156 14.578125 103.605469 L 16.09375 104.683594 C 16.601562 104.996094 17.226562 105.34375 17.964844 105.691406 C 11.988281 101.761719 11.335938 98.023438 11.335938 98.023438 C 13.078125 102.65625 18.878906 106.097656 18.878906 106.097656 C 17.742188 105.359375 16.621094 104.125 16.621094 104.125 C 15.480469 103.195312 13.992188 101.566406 13.890625 99.335938 C 13.730469 95.6875 14.339844 95.246094 14.339844 95.246094 C 14.339844 95.246094 18.21875 99.71875 18.027344 104.128906 C 18.03125 104.136719 18.03125 104.140625 18.03125 104.148438 C 18.074219 105.183594 18.742188 105.902344 19.011719 106.152344 C 20.261719 106.660156 21.765625 107.136719 23.523438 107.46875 C 22.710938 107.15625 21.6875 106.71875 21.226562 106.414062 C 21.226562 106.414062 21.222656 106.414062 21.222656 106.414062 C 20.175781 105.84375 19.1875 104.914062 19.015625 103.410156 C 18.625 99.988281 17.011719 97.402344 17.011719 97.402344 C 17.011719 97.402344 21.289062 98.378906 21.984375 101.441406 C 22.46875 103.554688 22.5625 105.285156 23.042969 106.324219 C 23.058594 106.34375 23.667969 107.28125 25.152344 107.722656 C 26.058594 107.835938 27.015625 107.910156 28.035156 107.929688 C 28.394531 107.933594 28.75 107.9375 29.101562 107.9375 C 27.878906 107.867188 25.628906 107.464844 24.699219 105.550781 C 23.390625 102.859375 24.539062 101.902344 23.359375 100.375 C 23.359375 100.375 25.910156 100.917969 27.066406 103.550781 C 28.21875 106.167969 28.363281 107.503906 29.902344 107.9375 C 32.496094 107.90625 34.886719 107.691406 37.1875 107.199219 C 36.550781 107.222656 35.703125 107.246094 35.261719 107.234375 L 35.261719 107.230469 C 33.558594 107.234375 30.730469 107 30.042969 105.644531 C 29.023438 103.636719 28.902344 101.929688 27.628906 101.632812 C 27.628906 101.632812 30.800781 101.109375 32.046875 102.902344 C 32.875 104.085938 33.699219 105.402344 34.75 106.269531 C 35.011719 106.472656 36.171875 107.238281 38.402344 106.90625 C 39.75 106.554688 41.078125 106.097656 42.40625 105.519531 C 40.417969 105.757812 39.597656 105.746094 39.363281 105.734375 C 37.945312 105.871094 36.050781 105.816406 35.027344 104.796875 C 33.25 103.035156 32.070312 101.710938 32.070312 101.710938 C 32.070312 101.710938 35.3125 101.339844 37.03125 102.199219 C 38.679688 103.023438 40.089844 105.367188 41.070312 105.433594 C 41.925781 105.4375 42.980469 105.230469 43.09375 105.207031 C 44.015625 104.773438 44.945312 104.285156 45.882812 103.722656 L 45.359375 103.851562 C 45.65625 103.816406 41.128906 104.53125 39.277344 102.765625 C 37.425781 101 37.128906 100.9375 36.085938 100.34375 C 36.085938 100.34375 39.121094 99.015625 41.429688 100.441406 C 43.054688 101.445312 43.824219 102.792969 44.5 103.457031 C 45.054688 103.761719 45.800781 103.625 46.265625 103.488281 C 46.570312 103.300781 46.875 103.109375 47.179688 102.90625 C 47.882812 102.445312 48.59375 101.945312 49.320312 101.40625 C 45.503906 102.878906 43.972656 101.167969 43.972656 101.167969 C 46.269531 102.585938 49.980469 100.878906 50.054688 100.84375 C 50.472656 100.519531 50.894531 100.1875 51.320312 99.832031 C 50.234375 100.46875 48.421875 100.632812 48.421875 100.632812 C 47.132812 100.855469 45.324219 100.953125 44.066406 100.140625 C 41.910156 98.746094 40.050781 97.472656 40.050781 97.472656 C 40.050781 97.472656 43.460938 96.292969 45.394531 97.566406 C 46.695312 98.425781 47.929688 99.367188 48.871094 99.875 C 49.855469 100.265625 51.777344 99.421875 51.859375 99.382812 C 52.417969 98.910156 52.988281 98.414062 53.570312 97.890625 C 49.699219 99.308594 47.875 97.472656 47.875 97.472656 C 50.273438 98.847656 53.472656 97.753906 53.890625 97.601562 Z M 53.824219 103.664062 C 53.898438 105.160156 54.347656 106.035156 54.257812 105.769531 C 54.171875 105.507812 53.589844 103.863281 54.445312 101.191406 C 55.296875 98.523438 54.128906 97.382812 54.128906 97.382812 L 53.9375 97.582031 C 55.394531 99.335938 53.75 102.167969 53.824219 103.664062 Z M 34.894531 101.003906 C 34.238281 99.71875 32.875 100.007812 32.875 100.007812 C 33.394531 101.007812 34.894531 101.003906 34.894531 101.003906 Z M 53.949219 102.261719 C 53.949219 102.261719 53.828125 100.453125 53.179688 99.71875 C 53.179688 99.71875 52.738281 101.515625 53.949219 102.261719 Z M 48.488281 110.992188 C 48.488281 110.992188 48.902344 109.921875 48.222656 108.410156 C 48.222656 108.410156 47.765625 110.042969 48.488281 110.992188 Z M 8.570312 104.675781 C 8.570312 104.675781 5.921875 104.929688 4.679688 104.144531 C 4.679688 104.144531 6.203125 103.105469 8.570312 104.675781 " fill-opacity="1" fill-rule="nonzero"/></g></g></g></g><g clip-path="url(#fc2cbf76a4)"><g transform="matrix(1, 0, 0, 1, 17, 9)"><g clip-path="url(#0093375cdf)"><g fill="#ffffff" fill-opacity="1"><g transform="translate(1.871366, 72.763441)"><g><path d="M -0.15625 -55.1875 L 13.484375 -55.1875 C 13.015625 -55.132812 12.476562 -54.953125 11.875 -54.640625 C 11.269531 -54.328125 10.820312 -53.851562 10.53125 -53.21875 C 10.25 -52.59375 10.316406 -51.8125 10.734375 -50.875 L 10.65625 -51.03125 L 30.734375 -6.5 L 50.71875 -51.34375 C 51.082031 -52.601562 50.847656 -53.546875 50.015625 -54.171875 C 49.179688 -54.796875 48.394531 -55.132812 47.65625 -55.1875 L 57.21875 -55.1875 C 56.332031 -55.082031 55.351562 -54.71875 54.28125 -54.09375 C 53.207031 -53.46875 52.28125 -52.421875 51.5 -50.953125 L 28.609375 1.015625 L 5.71875 -50.796875 C 4.9375 -52.316406 3.992188 -53.398438 2.890625 -54.046875 C 1.796875 -54.703125 0.78125 -55.082031 -0.15625 -55.1875 Z M -0.15625 -55.1875 "/></g></g></g><g fill="#ffffff" fill-opacity="1"><g transform="translate(64.266515, 72.763441)"><g><path d="M 14.890625 -0.078125 L 0.078125 -0.078125 C 1.429688 -0.078125 2.578125 -0.570312 3.515625 -1.5625 C 4.460938 -2.5625 4.9375 -3.972656 4.9375 -5.796875 L 4.9375 -49.390625 C 4.9375 -51.265625 4.460938 -52.695312 3.515625 -53.6875 C 2.578125 -54.6875 1.429688 -55.1875 0.078125 -55.1875 L 14.890625 -55.1875 C 13.585938 -55.1875 12.4375 -54.6875 11.4375 -53.6875 C 10.445312 -52.695312 9.953125 -51.265625 9.953125 -49.390625 L 9.953125 -5.796875 C 9.953125 -3.972656 10.445312 -2.5625 11.4375 -1.5625 C 12.4375 -0.570312 13.585938 -0.078125 14.890625 -0.078125 Z M 14.890625 -0.078125 "/></g></g></g><g fill="#ffffff" fill-opacity="1"><g transform="translate(87.076806, 72.763441)"><g><path d="M 29.78125 -56.515625 C 34.800781 -56.515625 39.207031 -55.703125 43 -54.078125 C 46.789062 -52.460938 49.9375 -50.28125 52.4375 -47.53125 C 54.945312 -44.789062 56.84375 -41.707031 58.125 -38.28125 C 59.40625 -34.863281 60.046875 -31.328125 60.046875 -27.671875 C 60.046875 -24.015625 59.40625 -20.472656 58.125 -17.046875 C 56.84375 -13.628906 54.945312 -10.546875 52.4375 -7.796875 C 49.9375 -5.054688 46.789062 -2.875 43 -1.25 C 39.207031 0.363281 34.800781 1.171875 29.78125 1.171875 C 24.769531 1.171875 20.367188 0.363281 16.578125 -1.25 C 12.785156 -2.875 9.632812 -5.054688 7.125 -7.796875 C 4.625 -10.546875 2.742188 -13.628906 1.484375 -17.046875 C 0.234375 -20.472656 -0.390625 -24.015625 -0.390625 -27.671875 C -0.390625 -31.328125 0.234375 -34.863281 1.484375 -38.28125 C 2.742188 -41.707031 4.625 -44.789062 7.125 -47.53125 C 9.632812 -50.28125 12.785156 -52.460938 16.578125 -54.078125 C 20.367188 -55.703125 24.769531 -56.515625 29.78125 -56.515625 Z M 29.78125 0.390625 C 33.914062 0.390625 37.523438 -0.390625 40.609375 -1.953125 C 43.691406 -3.523438 46.265625 -5.65625 48.328125 -8.34375 C 50.390625 -11.039062 51.941406 -14.046875 52.984375 -17.359375 C 54.035156 -20.679688 54.5625 -24.117188 54.5625 -27.671875 C 54.5625 -31.222656 54.050781 -34.65625 53.03125 -37.96875 C 52.007812 -41.289062 50.46875 -44.296875 48.40625 -46.984375 C 46.34375 -49.679688 43.753906 -51.8125 40.640625 -53.375 C 37.535156 -54.945312 33.914062 -55.734375 29.78125 -55.734375 C 25.65625 -55.734375 22.035156 -54.945312 18.921875 -53.375 C 15.816406 -51.8125 13.234375 -49.679688 11.171875 -46.984375 C 9.109375 -44.296875 7.566406 -41.289062 6.546875 -37.96875 C 5.523438 -34.65625 5.015625 -31.222656 5.015625 -27.671875 C 5.015625 -24.117188 5.535156 -20.679688 6.578125 -17.359375 C 7.628906 -14.046875 9.1875 -11.039062 11.25 -8.34375 C 13.3125 -5.65625 15.882812 -3.523438 18.96875 -1.953125 C 22.050781 -0.390625 25.65625 0.390625 29.78125 0.390625 Z M 29.78125 0.390625 "/></g></g></g><g fill="#ffffff" fill-opacity="1"><g transform="translate(154.723793, 72.763441)"><g><path d="M 14.890625 -0.078125 L 0.078125 -0.078125 C 1.429688 -0.078125 2.578125 -0.570312 3.515625 -1.5625 C 4.460938 -2.5625 4.9375 -3.972656 4.9375 -5.796875 L 4.9375 -49.390625 C 4.9375 -51.265625 4.460938 -52.695312 3.515625 -53.6875 C 2.578125 -54.6875 1.429688 -55.1875 0.078125 -55.1875 L 30.421875 -55.1875 C 33.972656 -55.1875 37.023438 -54.519531 39.578125 -53.1875 C 42.140625 -51.851562 44.191406 -50.101562 45.734375 -47.9375 C 47.273438 -45.769531 48.296875 -43.378906 48.796875 -40.765625 C 49.296875 -38.148438 49.296875 -35.535156 48.796875 -32.921875 C 48.296875 -30.304688 47.273438 -27.914062 45.734375 -25.75 C 44.191406 -23.582031 42.140625 -21.832031 39.578125 -20.5 C 37.023438 -19.164062 33.972656 -18.5 30.421875 -18.5 L 24.6875 -18.5 C 26.726562 -17.976562 28.78125 -17.101562 30.84375 -15.875 C 32.90625 -14.644531 34.878906 -12.800781 36.765625 -10.34375 C 38.597656 -8.039062 40.414062 -6.328125 42.21875 -5.203125 C 44.019531 -4.085938 45.703125 -3.53125 47.265625 -3.53125 C 48.890625 -3.53125 50.351562 -4.085938 51.65625 -5.203125 C 52.96875 -6.328125 54.015625 -7.9375 54.796875 -10.03125 C 54.691406 -7 53.710938 -4.460938 51.859375 -2.421875 C 50.003906 -0.390625 47.535156 0.625 44.453125 0.625 C 42.253906 0.625 40.394531 0.0859375 38.875 -0.984375 C 37.363281 -2.054688 35.914062 -3.53125 34.53125 -5.40625 C 33.144531 -7.289062 31.535156 -9.4375 29.703125 -11.84375 C 28.453125 -13.507812 27.222656 -14.800781 26.015625 -15.71875 C 24.816406 -16.632812 23.5 -17.273438 22.0625 -17.640625 C 20.625 -18.003906 18.9375 -18.222656 17 -18.296875 C 15.070312 -18.378906 12.722656 -18.421875 9.953125 -18.421875 L 9.953125 -5.796875 C 9.953125 -3.972656 10.445312 -2.5625 11.4375 -1.5625 C 12.4375 -0.570312 13.585938 -0.078125 14.890625 -0.078125 Z M 9.875 -49.546875 L 9.875 -19.4375 L 26.578125 -19.4375 C 29.816406 -19.4375 32.597656 -20.0625 34.921875 -21.3125 C 37.242188 -22.570312 39.109375 -24.234375 40.515625 -26.296875 C 41.929688 -28.359375 42.875 -30.628906 43.34375 -33.109375 C 43.820312 -35.597656 43.820312 -38.082031 43.34375 -40.5625 C 42.875 -43.050781 41.929688 -45.328125 40.515625 -47.390625 C 39.109375 -49.453125 37.242188 -51.109375 34.921875 -52.359375 C 32.597656 -53.617188 29.816406 -54.25 26.578125 -54.25 L 13.25 -54.25 C 12.09375 -54.039062 11.238281 -53.476562 10.6875 -52.5625 C 10.144531 -51.644531 9.875 -50.640625 9.875 -49.546875 Z M 9.875 -49.546875 "/></g></g></g></g></g></g><g clip-path="url(#c8c735f7c1)"><path fill="#ffbd59" d="M 134.140625 23.984375 C 150.234375 23.984375 163.613281 35.605469 166.34375 50.917969 C 166.238281 33.222656 151.863281 18.910156 134.140625 18.910156 C 116.421875 18.910156 102.046875 33.222656 101.941406 50.917969 C 104.667969 35.605469 118.046875 23.984375 134.140625 23.984375 " fill-opacity="1" fill-rule="nonzero"/></g><g clip-path="url(#ff5e476054)"><path fill="#ffbd59" d="M 139.886719 13.273438 L 144.691406 1.574219 C 144.914062 1.035156 144.515625 0.441406 143.933594 0.441406 L 124.351562 0.441406 C 123.765625 0.441406 123.371094 1.035156 123.589844 1.574219 L 128.398438 13.273438 L 139.886719 13.273438 " fill-opacity="1" fill-rule="nonzero"/></g><path fill="#ffbd59" d="M 134.140625 17.785156 C 135.929688 17.785156 137.691406 17.925781 139.425781 18.203125 L 139.425781 14.398438 L 128.859375 14.398438 L 128.859375 18.203125 C 130.589844 17.925781 132.355469 17.785156 134.140625 17.785156 " fill-opacity="1" fill-rule="nonzero"/><g fill="#ffffff" fill-opacity="1"><g transform="translate(56.427501, 107.843755)"><g><path d="M 0.546875 0 L 0.546875 -0.171875 C 0.816406 -0.171875 1.019531 -0.234375 1.15625 -0.359375 C 1.300781 -0.484375 1.40625 -0.640625 1.46875 -0.828125 C 1.53125 -1.023438 1.566406 -1.234375 1.578125 -1.453125 C 1.597656 -1.671875 1.609375 -1.863281 1.609375 -2.03125 L 1.609375 -11.78125 C 1.609375 -11.945312 1.597656 -12.140625 1.578125 -12.359375 C 1.566406 -12.578125 1.53125 -12.78125 1.46875 -12.96875 C 1.40625 -13.164062 1.300781 -13.328125 1.15625 -13.453125 C 1.019531 -13.578125 0.816406 -13.640625 0.546875 -13.640625 L 0.546875 -13.8125 L 7.734375 -13.8125 C 8.617188 -13.8125 9.359375 -13.632812 9.953125 -13.28125 C 10.546875 -12.9375 10.992188 -12.488281 11.296875 -11.9375 C 11.597656 -11.382812 11.75 -10.800781 11.75 -10.1875 C 11.75 -9.707031 11.664062 -9.238281 11.5 -8.78125 C 11.332031 -8.332031 11.082031 -7.925781 10.75 -7.5625 C 10.425781 -7.207031 10.007812 -6.921875 9.5 -6.703125 C 9 -6.492188 8.398438 -6.390625 7.703125 -6.390625 L 2.984375 -6.390625 L 2.984375 -2.03125 C 2.984375 -1.863281 2.988281 -1.671875 3 -1.453125 C 3.019531 -1.234375 3.054688 -1.023438 3.109375 -0.828125 C 3.171875 -0.640625 3.273438 -0.484375 3.421875 -0.359375 C 3.566406 -0.234375 3.769531 -0.171875 4.03125 -0.171875 L 4.03125 0 Z M 2.984375 -13.53125 L 2.984375 -6.6875 L 6.734375 -6.6875 C 7.546875 -6.6875 8.222656 -6.847656 8.765625 -7.171875 C 9.304688 -7.492188 9.710938 -7.914062 9.984375 -8.4375 C 10.253906 -8.96875 10.390625 -9.535156 10.390625 -10.140625 C 10.390625 -10.722656 10.253906 -11.269531 9.984375 -11.78125 C 9.710938 -12.300781 9.300781 -12.722656 8.75 -13.046875 C 8.195312 -13.367188 7.515625 -13.53125 6.703125 -13.53125 Z M 2.984375 -13.53125 "/></g></g></g><g fill="#ffffff" fill-opacity="1"><g transform="translate(76.792631, 107.843755)"><g><path d="M 0.546875 -0.171875 C 0.816406 -0.171875 1.019531 -0.234375 1.15625 -0.359375 C 1.300781 -0.484375 1.40625 -0.640625 1.46875 -0.828125 C 1.53125 -1.023438 1.566406 -1.234375 1.578125 -1.453125 C 1.597656 -1.671875 1.609375 -1.863281 1.609375 -2.03125 L 1.609375 -11.78125 C 1.609375 -11.945312 1.597656 -12.140625 1.578125 -12.359375 C 1.566406 -12.578125 1.53125 -12.78125 1.46875 -12.96875 C 1.40625 -13.164062 1.300781 -13.328125 1.15625 -13.453125 C 1.019531 -13.578125 0.816406 -13.640625 0.546875 -13.640625 L 0.546875 -13.8125 L 11.328125 -13.8125 L 11.328125 -11.640625 L 11.15625 -11.640625 C 10.945312 -12.097656 10.660156 -12.453125 10.296875 -12.703125 C 9.941406 -12.960938 9.546875 -13.148438 9.109375 -13.265625 C 8.671875 -13.390625 8.222656 -13.460938 7.765625 -13.484375 C 7.316406 -13.515625 6.894531 -13.53125 6.5 -13.53125 L 2.984375 -13.53125 L 2.984375 -8.421875 L 9.53125 -8.421875 L 8.984375 -6.90625 L 8.828125 -6.90625 C 8.671875 -7.363281 8.398438 -7.675781 8.015625 -7.84375 C 7.628906 -8.019531 7.117188 -8.113281 6.484375 -8.125 C 5.847656 -8.144531 5.085938 -8.15625 4.203125 -8.15625 L 2.984375 -8.15625 L 2.984375 -0.28125 L 6.609375 -0.28125 C 7.328125 -0.28125 7.96875 -0.375 8.53125 -0.5625 C 9.101562 -0.75 9.601562 -0.988281 10.03125 -1.28125 C 10.457031 -1.582031 10.8125 -1.898438 11.09375 -2.234375 C 11.375 -2.578125 11.585938 -2.898438 11.734375 -3.203125 L 11.890625 -3.203125 L 10.765625 0 L 0.546875 0 Z M 0.546875 -0.171875 "/></g></g></g><g fill="#ffffff" fill-opacity="1"><g transform="translate(96.467478, 107.843755)"><g><path d="M 1.609375 -11.78125 C 1.609375 -11.945312 1.597656 -12.140625 1.578125 -12.359375 C 1.566406 -12.578125 1.53125 -12.78125 1.46875 -12.96875 C 1.40625 -13.164062 1.300781 -13.328125 1.15625 -13.453125 C 1.019531 -13.578125 0.816406 -13.640625 0.546875 -13.640625 L 0.546875 -13.8125 L 7.734375 -13.8125 C 8.617188 -13.8125 9.359375 -13.632812 9.953125 -13.28125 C 10.546875 -12.9375 10.992188 -12.488281 11.296875 -11.9375 C 11.597656 -11.382812 11.75 -10.800781 11.75 -10.1875 C 11.75 -9.707031 11.664062 -9.238281 11.5 -8.78125 C 11.332031 -8.332031 11.082031 -7.925781 10.75 -7.5625 C 10.425781 -7.207031 10.007812 -6.921875 9.5 -6.703125 C 9 -6.492188 8.398438 -6.390625 7.703125 -6.390625 L 6.953125 -6.390625 C 7.085938 -6.359375 7.207031 -6.285156 7.3125 -6.171875 C 7.414062 -6.054688 7.539062 -5.878906 7.6875 -5.640625 C 7.832031 -5.410156 8.023438 -5.097656 8.265625 -4.703125 C 8.503906 -4.316406 8.828125 -3.828125 9.234375 -3.234375 C 9.617188 -2.703125 9.957031 -2.210938 10.25 -1.765625 C 10.539062 -1.316406 10.835938 -0.957031 11.140625 -0.6875 C 11.328125 -0.519531 11.519531 -0.390625 11.71875 -0.296875 C 11.925781 -0.210938 12.144531 -0.171875 12.375 -0.171875 L 12.375 0 L 8.21875 0 L 8.21875 -0.171875 C 8.34375 -0.171875 8.484375 -0.210938 8.640625 -0.296875 C 8.796875 -0.378906 8.875 -0.535156 8.875 -0.765625 C 8.875 -0.859375 8.8125 -1.03125 8.6875 -1.28125 C 8.570312 -1.53125 8.414062 -1.828125 8.21875 -2.171875 C 8.03125 -2.515625 7.820312 -2.875 7.59375 -3.25 C 7.363281 -3.625 7.132812 -3.988281 6.90625 -4.34375 C 6.539062 -4.90625 6.253906 -5.328125 6.046875 -5.609375 C 5.835938 -5.898438 5.660156 -6.097656 5.515625 -6.203125 C 5.367188 -6.316406 5.195312 -6.378906 5 -6.390625 L 2.984375 -6.390625 L 2.984375 -2.03125 C 2.984375 -1.863281 2.988281 -1.671875 3 -1.453125 C 3.019531 -1.234375 3.054688 -1.023438 3.109375 -0.828125 C 3.171875 -0.640625 3.273438 -0.484375 3.421875 -0.359375 C 3.566406 -0.234375 3.769531 -0.171875 4.03125 -0.171875 L 4.03125 0 L 0.546875 0 L 0.546875 -0.171875 C 0.816406 -0.171875 1.019531 -0.234375 1.15625 -0.359375 C 1.300781 -0.484375 1.40625 -0.640625 1.46875 -0.828125 C 1.53125 -1.023438 1.566406 -1.234375 1.578125 -1.453125 C 1.597656 -1.671875 1.609375 -1.863281 1.609375 -2.03125 Z M 6.703125 -13.53125 L 2.984375 -13.53125 L 2.984375 -6.6875 L 6.734375 -6.6875 C 7.546875 -6.6875 8.222656 -6.847656 8.765625 -7.171875 C 9.304688 -7.492188 9.710938 -7.914062 9.984375 -8.4375 C 10.253906 -8.96875 10.390625 -9.535156 10.390625 -10.140625 C 10.390625 -10.722656 10.253906 -11.269531 9.984375 -11.78125 C 9.710938 -12.300781 9.300781 -12.722656 8.75 -13.046875 C 8.195312 -13.367188 7.515625 -13.53125 6.703125 -13.53125 Z M 6.703125 -13.53125 "/></g></g></g><g fill="#ffffff" fill-opacity="1"><g transform="translate(116.625524, 107.843755)"><g><path d="M 4.03125 0 L 0.546875 0 L 0.546875 -0.171875 C 0.816406 -0.171875 1.019531 -0.234375 1.15625 -0.359375 C 1.300781 -0.484375 1.40625 -0.640625 1.46875 -0.828125 C 1.53125 -1.023438 1.566406 -1.234375 1.578125 -1.453125 C 1.597656 -1.671875 1.609375 -1.863281 1.609375 -2.03125 L 1.609375 -11.78125 C 1.609375 -11.945312 1.597656 -12.140625 1.578125 -12.359375 C 1.566406 -12.578125 1.53125 -12.78125 1.46875 -12.96875 C 1.40625 -13.164062 1.300781 -13.328125 1.15625 -13.453125 C 1.019531 -13.578125 0.816406 -13.640625 0.546875 -13.640625 L 0.546875 -13.8125 L 11.328125 -13.8125 L 11.328125 -11.640625 L 11.15625 -11.640625 C 11.15625 -12.085938 11.019531 -12.445312 10.75 -12.71875 C 10.476562 -13 10.117188 -13.203125 9.671875 -13.328125 C 9.234375 -13.460938 8.753906 -13.53125 8.234375 -13.53125 L 2.984375 -13.53125 L 2.984375 -8.421875 L 10.046875 -8.421875 L 9.5 -6.90625 L 9.34375 -6.90625 C 9.1875 -7.363281 8.914062 -7.675781 8.53125 -7.84375 C 8.144531 -8.019531 7.632812 -8.113281 7 -8.125 C 6.375 -8.144531 5.613281 -8.15625 4.71875 -8.15625 L 2.984375 -8.15625 L 2.984375 -2.03125 C 2.984375 -1.863281 2.988281 -1.671875 3 -1.453125 C 3.019531 -1.234375 3.054688 -1.023438 3.109375 -0.828125 C 3.171875 -0.640625 3.273438 -0.484375 3.421875 -0.359375 C 3.566406 -0.234375 3.769531 -0.171875 4.03125 -0.171875 Z M 4.03125 0 "/></g></g></g><g fill="#ffffff" fill-opacity="1"><g transform="translate(136.286573, 107.843755)"><g><path d="M 0.421875 -13.640625 L 0.421875 -13.8125 L 3.890625 -13.8125 L 3.890625 -13.640625 C 3.640625 -13.640625 3.4375 -13.578125 3.28125 -13.453125 C 3.132812 -13.328125 3.03125 -13.164062 2.96875 -12.96875 C 2.914062 -12.78125 2.878906 -12.578125 2.859375 -12.359375 C 2.847656 -12.140625 2.84375 -11.945312 2.84375 -11.78125 L 2.84375 -3.765625 C 2.84375 -3.316406 2.882812 -2.878906 2.96875 -2.453125 C 3.050781 -2.035156 3.191406 -1.65625 3.390625 -1.3125 C 3.585938 -0.976562 3.863281 -0.710938 4.21875 -0.515625 C 4.582031 -0.316406 5.039062 -0.21875 5.59375 -0.21875 C 6.164062 -0.21875 6.734375 -0.289062 7.296875 -0.4375 C 7.867188 -0.582031 8.410156 -0.78125 8.921875 -1.03125 C 9.429688 -1.289062 9.878906 -1.585938 10.265625 -1.921875 L 10.28125 -7.453125 L 10.28125 -11.78125 C 10.28125 -11.945312 10.269531 -12.140625 10.25 -12.359375 C 10.238281 -12.578125 10.203125 -12.78125 10.140625 -12.96875 C 10.085938 -13.164062 9.988281 -13.328125 9.84375 -13.453125 C 9.695312 -13.578125 9.492188 -13.640625 9.234375 -13.640625 L 9.234375 -13.8125 L 12.703125 -13.8125 L 12.703125 -13.640625 C 12.453125 -13.640625 12.25 -13.578125 12.09375 -13.453125 C 11.945312 -13.328125 11.84375 -13.164062 11.78125 -12.96875 C 11.726562 -12.78125 11.691406 -12.578125 11.671875 -12.359375 C 11.660156 -12.140625 11.65625 -11.945312 11.65625 -11.78125 L 11.65625 -2.03125 C 11.65625 -1.863281 11.660156 -1.671875 11.671875 -1.453125 C 11.691406 -1.234375 11.726562 -1.023438 11.78125 -0.828125 C 11.84375 -0.640625 11.945312 -0.484375 12.09375 -0.359375 C 12.25 -0.234375 12.453125 -0.171875 12.703125 -0.171875 L 12.703125 0 L 10.28125 0 L 10.28125 -1.609375 C 9.8125 -1.210938 9.3125 -0.867188 8.78125 -0.578125 C 8.257812 -0.285156 7.6875 -0.0625 7.0625 0.09375 C 6.4375 0.257812 5.722656 0.34375 4.921875 0.34375 C 3.859375 0.34375 3.015625 0.0195312 2.390625 -0.625 C 1.773438 -1.28125 1.46875 -2.1875 1.46875 -3.34375 L 1.46875 -11.78125 C 1.46875 -11.945312 1.457031 -12.140625 1.4375 -12.359375 C 1.425781 -12.578125 1.390625 -12.78125 1.328125 -12.96875 C 1.273438 -13.164062 1.175781 -13.328125 1.03125 -13.453125 C 0.882812 -13.578125 0.679688 -13.640625 0.421875 -13.640625 Z M 0.421875 -13.640625 "/></g></g></g><g fill="#ffffff" fill-opacity="1"><g transform="translate(157.328177, 107.843755)"><g><path d="M 3.0625 0 L 0 0 L 0 -0.171875 C 0.257812 -0.171875 0.539062 -0.304688 0.84375 -0.578125 C 1.15625 -0.847656 1.375 -1.269531 1.5 -1.84375 C 1.78125 -3.050781 2.035156 -4.222656 2.265625 -5.359375 C 2.503906 -6.503906 2.738281 -7.648438 2.96875 -8.796875 C 3.207031 -9.953125 3.46875 -11.164062 3.75 -12.4375 L 3.53125 -12.9375 C 3.425781 -13.195312 3.304688 -13.375 3.171875 -13.46875 C 3.046875 -13.5625 2.910156 -13.613281 2.765625 -13.625 C 2.617188 -13.632812 2.460938 -13.640625 2.296875 -13.640625 L 2.296875 -13.8125 L 4.34375 -13.8125 C 4.53125 -13.8125 4.675781 -13.757812 4.78125 -13.65625 C 4.882812 -13.5625 4.953125 -13.457031 4.984375 -13.34375 C 5.523438 -11.789062 6.070312 -10.285156 6.625 -8.828125 C 7.175781 -7.367188 7.765625 -5.894531 8.390625 -4.40625 C 9.003906 -5.894531 9.585938 -7.367188 10.140625 -8.828125 C 10.691406 -10.285156 11.238281 -11.789062 11.78125 -13.34375 C 11.820312 -13.457031 11.890625 -13.5625 11.984375 -13.65625 C 12.085938 -13.757812 12.238281 -13.8125 12.4375 -13.8125 L 14.625 -13.8125 L 14.625 -13.640625 C 14.46875 -13.640625 14.289062 -13.625 14.09375 -13.59375 C 13.894531 -13.570312 13.734375 -13.507812 13.609375 -13.40625 C 13.484375 -13.3125 13.441406 -13.148438 13.484375 -12.921875 C 13.671875 -11.835938 13.851562 -10.828125 14.03125 -9.890625 C 14.207031 -8.960938 14.378906 -8.0625 14.546875 -7.1875 C 14.722656 -6.320312 14.898438 -5.453125 15.078125 -4.578125 C 15.265625 -3.710938 15.46875 -2.800781 15.6875 -1.84375 C 15.820312 -1.269531 16.039062 -0.847656 16.34375 -0.578125 C 16.65625 -0.304688 16.941406 -0.171875 17.203125 -0.171875 L 17.203125 0 L 12.96875 0 L 12.96875 -0.171875 C 13.207031 -0.171875 13.441406 -0.265625 13.671875 -0.453125 C 13.898438 -0.640625 14.015625 -0.929688 14.015625 -1.328125 C 14.015625 -1.535156 13.976562 -1.914062 13.90625 -2.46875 C 13.832031 -3.03125 13.726562 -3.710938 13.59375 -4.515625 C 13.457031 -5.316406 13.304688 -6.191406 13.140625 -7.140625 C 12.972656 -8.097656 12.789062 -9.082031 12.59375 -10.09375 C 12.394531 -11.113281 12.191406 -12.113281 11.984375 -13.09375 C 11.421875 -11.539062 10.863281 -10.019531 10.3125 -8.53125 C 9.757812 -7.050781 9.164062 -5.550781 8.53125 -4.03125 C 8.550781 -4 8.566406 -3.96875 8.578125 -3.9375 C 8.597656 -3.90625 8.613281 -3.875 8.625 -3.84375 C 8.738281 -3.550781 8.859375 -3.34375 8.984375 -3.21875 C 9.117188 -3.09375 9.285156 -3.03125 9.484375 -3.03125 L 9.78125 -3.03125 L 9.78125 -2.84375 C 9.539062 -2.8125 9.332031 -2.742188 9.15625 -2.640625 C 8.988281 -2.535156 8.835938 -2.414062 8.703125 -2.28125 C 8.578125 -2.15625 8.460938 -2.046875 8.359375 -1.953125 C 8.253906 -1.867188 8.144531 -1.828125 8.03125 -1.828125 C 7.945312 -1.828125 7.875 -1.859375 7.8125 -1.921875 C 7.757812 -1.984375 7.710938 -2.066406 7.671875 -2.171875 C 7.566406 -2.429688 7.40625 -2.863281 7.1875 -3.46875 C 6.96875 -4.082031 6.695312 -4.8125 6.375 -5.65625 L 3.984375 -11.890625 C 3.847656 -11.285156 3.703125 -10.628906 3.546875 -9.921875 C 3.390625 -9.210938 3.238281 -8.488281 3.09375 -7.75 C 2.945312 -7.007812 2.804688 -6.289062 2.671875 -5.59375 C 2.546875 -4.894531 2.429688 -4.25 2.328125 -3.65625 C 2.234375 -3.070312 2.15625 -2.570312 2.09375 -2.15625 C 2.039062 -1.738281 2.015625 -1.445312 2.015625 -1.28125 C 2.015625 -0.882812 2.128906 -0.597656 2.359375 -0.421875 C 2.585938 -0.253906 2.820312 -0.171875 3.0625 -0.171875 Z M 3.0625 0 "/></g></g></g><g fill="#ffffff" fill-opacity="1"><g transform="translate(182.304374, 107.843755)"><g><path d="M 0.546875 -0.171875 C 0.816406 -0.171875 1.019531 -0.234375 1.15625 -0.359375 C 1.300781 -0.484375 1.40625 -0.640625 1.46875 -0.828125 C 1.53125 -1.023438 1.566406 -1.234375 1.578125 -1.453125 C 1.597656 -1.671875 1.609375 -1.863281 1.609375 -2.03125 L 1.609375 -11.78125 C 1.609375 -11.945312 1.597656 -12.140625 1.578125 -12.359375 C 1.566406 -12.578125 1.53125 -12.78125 1.46875 -12.96875 C 1.40625 -13.164062 1.300781 -13.328125 1.15625 -13.453125 C 1.019531 -13.578125 0.816406 -13.640625 0.546875 -13.640625 L 0.546875 -13.8125 L 11.328125 -13.8125 L 11.328125 -11.640625 L 11.15625 -11.640625 C 10.945312 -12.097656 10.660156 -12.453125 10.296875 -12.703125 C 9.941406 -12.960938 9.546875 -13.148438 9.109375 -13.265625 C 8.671875 -13.390625 8.222656 -13.460938 7.765625 -13.484375 C 7.316406 -13.515625 6.894531 -13.53125 6.5 -13.53125 L 2.984375 -13.53125 L 2.984375 -8.421875 L 9.53125 -8.421875 L 8.984375 -6.90625 L 8.828125 -6.90625 C 8.671875 -7.363281 8.398438 -7.675781 8.015625 -7.84375 C 7.628906 -8.019531 7.117188 -8.113281 6.484375 -8.125 C 5.847656 -8.144531 5.085938 -8.15625 4.203125 -8.15625 L 2.984375 -8.15625 L 2.984375 -0.28125 L 6.609375 -0.28125 C 7.328125 -0.28125 7.96875 -0.375 8.53125 -0.5625 C 9.101562 -0.75 9.601562 -0.988281 10.03125 -1.28125 C 10.457031 -1.582031 10.8125 -1.898438 11.09375 -2.234375 C 11.375 -2.578125 11.585938 -2.898438 11.734375 -3.203125 L 11.890625 -3.203125 L 10.765625 0 L 0.546875 0 Z M 0.546875 -0.171875 "/></g></g></g><g clip-path="url(#95b203becb)"><g clip-path="url(#0189fcec63)"><g transform="matrix(1, 0, 0, 1, 196, 95)"><g clip-path="url(#5ca00d5199)"><g clip-path="url(#e1e7f04fab)"><g clip-path="url(#0bb6c45e9b)"><g clip-path="url(#55f1cd949a)"><g clip-path="url(#9673525855)"><path fill="#ffbd59" d="M 6.296875 1.570312 C 5.15625 2.039062 2.074219 2.414062 2.074219 2.414062 C 3.234375 1.515625 6.296875 1.570312 6.296875 1.570312 Z M 1.144531 2.761719 C 1.144531 2.761719 3.753906 4.238281 8.023438 1.300781 C 8.023438 1.300781 4.140625 -0.425781 1.144531 2.761719 Z M 3.910156 6.425781 C 4.773438 7.722656 5.007812 11.214844 5.007812 11.214844 C 4.285156 9.574219 3.910156 6.425781 3.910156 6.425781 Z M 8.539062 10.542969 C 9.097656 11.375 9.800781 11.878906 9.828125 13.863281 C 9.84375 15.15625 10.734375 16.445312 10.734375 16.445312 C 10.734375 16.445312 9.476562 15.042969 9.503906 13.613281 C 9.527344 12.1875 8.539062 10.542969 8.539062 10.542969 Z M 13.25 13.679688 C 13.25 13.679688 15.007812 16.570312 15.976562 17.582031 C 16.003906 17.613281 13.390625 15.785156 13.25 13.679688 Z M 18.320312 14.675781 C 22.3125 16.488281 23.042969 19.273438 22.972656 19.160156 C 21.78125 17.3125 18.320312 14.675781 18.320312 14.675781 Z M 23.722656 15.199219 C 23.722656 15.199219 28.8125 17.4375 29.074219 20.21875 C 29.074219 20.21875 27.835938 17.679688 23.722656 15.199219 Z M 29.726562 15.164062 C 31.527344 15.585938 35.230469 17.925781 35.230469 17.925781 C 34.03125 17.511719 29.726562 15.164062 29.726562 15.164062 Z M 34.960938 14.066406 C 35.695312 14.222656 39.941406 15.96875 39.941406 15.96875 C 38.042969 15.960938 34.960938 14.066406 34.960938 14.066406 Z M 40.007812 12.257812 C 40.007812 12.257812 45.214844 13.15625 46.359375 13.503906 C 46.359375 13.503906 41.867188 13.425781 40.007812 12.257812 Z M 42.976562 9.394531 C 42.976562 9.394531 45.910156 8.210938 47.902344 6.308594 C 49.894531 4.402344 51.425781 4.074219 51.425781 4.074219 C 51.425781 4.074219 49.628906 4.75 48.011719 6.621094 C 46.390625 8.492188 42.976562 9.394531 42.976562 9.394531 Z M 37.9375 10.664062 C 39.769531 8.089844 40.410156 3.878906 40.410156 3.878906 C 40.773438 7.667969 37.9375 10.664062 37.9375 10.664062 Z M 32.511719 13.117188 C 32.546875 13.105469 32.578125 13.09375 32.613281 13.082031 C 32.550781 13.105469 32.511719 13.117188 32.511719 13.117188 Z M 32.738281 13.03125 C 32.816406 12.996094 32.910156 12.953125 33.015625 12.898438 C 34.117188 12.285156 34.035156 10.90625 34.46875 8.941406 C 34.960938 6.714844 36.410156 5.761719 36.410156 5.761719 C 35.804688 6.40625 34.863281 8.683594 34.535156 10.761719 C 34.355469 11.917969 33.609375 12.589844 33.015625 12.898438 C 32.929688 12.945312 32.835938 12.988281 32.738281 13.03125 Z M 26.839844 13.582031 C 28.722656 13.296875 29.046875 11.804688 29.605469 10.671875 C 30.191406 9.492188 30.699219 8.210938 30.699219 8.210938 C 30.324219 9.367188 30.496094 10.105469 29.386719 11.925781 C 28.28125 13.75 26.738281 13.597656 26.839844 13.582031 Z M 20.25 12.898438 C 23.113281 12.09375 23.621094 11.316406 24.351562 10.054688 C 25.082031 8.792969 25.992188 8.523438 25.992188 8.523438 C 25.992188 8.523438 24.816406 9.324219 24.078125 10.984375 C 23.339844 12.640625 20.210938 12.910156 20.25 12.898438 Z M 15.59375 11.222656 C 16.96875 11.253906 17.84375 10.421875 18.976562 9.554688 C 20.113281 8.6875 21.460938 8.710938 21.460938 8.710938 C 21.460938 8.710938 19.785156 9.230469 18.515625 10.425781 C 17.242188 11.617188 15.4375 11.21875 15.59375 11.222656 Z M 11.722656 9.035156 C 11.671875 9.027344 11.898438 9.054688 12.269531 9.039062 C 13.277344 8.90625 14.34375 8.074219 14.933594 7.632812 C 15.636719 7.109375 17.421875 6.515625 17.421875 6.515625 C 17.421875 6.515625 15.945312 7.195312 14.742188 8.324219 C 13.972656 9.046875 12.925781 9.011719 12.269531 9.039062 C 12.082031 9.066406 11.898438 9.066406 11.722656 9.035156 Z M 6.929688 5.75 C 7.933594 5.660156 9.265625 5.710938 10.941406 4.757812 C 11.738281 4.300781 12.414062 4.035156 12.902344 3.882812 C 13.179688 3.765625 13.453125 3.691406 13.757812 3.675781 C 13.757812 3.675781 13.238281 3.882812 12.699219 4.054688 C 12.035156 4.332031 11.464844 4.894531 10.316406 5.5 C 8.691406 6.359375 6.679688 5.773438 6.929688 5.75 Z M 1.378906 2.984375 C 1.300781 2.910156 1.222656 2.835938 1.144531 2.761719 C 1.207031 2.828125 1.269531 2.898438 1.332031 2.96875 C 1.332031 2.96875 1.332031 2.964844 1.332031 2.964844 L 1.339844 2.976562 C 2.085938 3.804688 2.839844 4.582031 3.609375 5.308594 C 1.664062 11.242188 5.632812 12.648438 5.632812 12.648438 C 5.957031 9.125 4.863281 6.871094 4.171875 5.832031 C 5.429688 6.976562 6.714844 7.992188 8.015625 8.886719 C 8.125 9.625 7.597656 10.753906 7.804688 13.644531 C 8.042969 17.035156 12.691406 18.171875 12.691406 18.171875 C 12.691406 18.171875 11.574219 17.550781 11.101562 14.378906 C 10.78125 12.195312 9.378906 10.246094 8.539062 9.242188 C 9.753906 10.042969 10.976562 10.746094 12.199219 11.351562 C 12.628906 12.199219 12.414062 13.539062 12.730469 15.992188 C 13.0625 18.554688 17.863281 19.542969 17.863281 19.542969 C 15.945312 14.996094 13.113281 12.144531 12.339844 11.421875 C 13.351562 11.917969 14.359375 12.347656 15.363281 12.722656 L 16.316406 13.457031 C 17.425781 14.492188 18.21875 16.539062 19.617188 18.296875 C 21.015625 20.050781 24.160156 21.011719 24.160156 21.011719 C 24.160156 21.011719 25.015625 19.445312 22.503906 16.839844 C 20.980469 15.261719 19.03125 14.355469 17.730469 13.882812 L 15.859375 12.90625 C 18.039062 13.679688 20.191406 14.183594 22.261719 14.472656 C 22.960938 15.148438 23.980469 16.625 25.335938 18.398438 C 27.027344 20.609375 30.105469 21.117188 30.105469 21.117188 C 29.894531 17.785156 26.890625 15.921875 24.554688 14.972656 C 27.269531 16.054688 31.316406 18.285156 31.316406 18.285156 C 29.09375 16.714844 26.316406 15.332031 25.042969 14.730469 C 26.164062 14.789062 27.253906 14.78125 28.292969 14.722656 C 28.980469 15.082031 30.050781 16.207031 32.242188 17.449219 C 34.816406 18.90625 36.550781 18.597656 36.550781 18.597656 C 35.269531 15.566406 31.1875 14.835938 29.148438 14.660156 C 29.265625 14.648438 29.386719 14.640625 29.503906 14.628906 C 31.042969 14.476562 32.394531 14.21875 33.582031 13.90625 C 36.128906 17.402344 41.109375 16.417969 41.109375 16.417969 C 39.773438 13.570312 36.5 13.421875 34.707031 13.582031 C 36.113281 13.128906 37.238281 12.609375 38.113281 12.113281 C 44.144531 15.402344 47.78125 13.75 47.78125 13.75 C 45.234375 10.964844 38.6875 12.003906 38.136719 12.097656 C 38.511719 11.886719 38.835938 11.679688 39.117188 11.488281 C 39.328125 11.339844 41.195312 10.902344 43.351562 11.050781 C 45.507812 11.195312 47.113281 10.660156 48.898438 9.230469 C 48.898438 9.230469 46.675781 10.917969 44.1875 10.773438 C 41.699219 10.628906 41.5625 10.75 39.941406 11.003906 C 40.816406 10.574219 41.992188 10.148438 41.992188 10.148438 L 41.988281 10.148438 C 43.613281 10 45.933594 9.621094 48.71875 7.59375 C 52.457031 4.875 52.023438 3.738281 54.308594 2.273438 C 54.308594 2.273438 49.324219 3.089844 47.183594 4.855469 C 45.234375 6.46875 42.816406 8.824219 41.070312 9.976562 L 40.902344 10.085938 C 40.789062 10.15625 40.683594 10.222656 40.578125 10.28125 C 40.589844 10.277344 40.601562 10.277344 40.613281 10.277344 L 40.53125 10.328125 C 40.5625 10.296875 40.578125 10.28125 40.578125 10.28125 C 40.578125 10.28125 40.535156 10.316406 40.453125 10.382812 L 38.898438 11.40625 C 38.382812 11.699219 37.746094 12.023438 36.996094 12.347656 C 43.105469 8.632812 43.894531 4.917969 43.894531 4.917969 C 41.984375 9.484375 36.066406 12.71875 36.066406 12.71875 C 37.230469 12.023438 38.390625 10.828125 38.390625 10.828125 C 39.566406 9.941406 41.113281 8.367188 41.289062 6.140625 C 41.582031 2.5 40.988281 2.035156 40.988281 2.035156 C 40.988281 2.035156 36.949219 6.367188 36.984375 10.785156 C 36.984375 10.792969 36.984375 10.796875 36.984375 10.804688 C 36.902344 11.835938 36.207031 12.53125 35.929688 12.769531 C 34.664062 13.234375 33.144531 13.65625 31.375 13.925781 C 32.199219 13.644531 33.238281 13.238281 33.710938 12.953125 C 34.78125 12.421875 35.800781 11.527344 36.027344 10.027344 C 36.539062 6.625 38.238281 4.097656 38.238281 4.097656 C 38.238281 4.097656 33.933594 4.921875 33.125 7.957031 C 32.570312 10.050781 32.414062 11.777344 31.898438 12.796875 C 31.882812 12.820312 31.238281 13.734375 29.738281 14.121094 C 28.828125 14.199219 27.871094 14.242188 26.851562 14.226562 C 26.492188 14.21875 26.136719 14.210938 25.78125 14.199219 C 27.007812 14.167969 29.273438 13.847656 30.269531 11.964844 C 31.671875 9.324219 30.558594 8.328125 31.792969 6.84375 C 31.792969 6.84375 29.222656 7.296875 27.972656 9.886719 C 26.730469 12.460938 26.539062 13.789062 24.984375 14.167969 C 22.390625 14.046875 20.011719 13.746094 17.730469 13.171875 C 18.367188 13.214844 19.210938 13.269531 19.652344 13.273438 L 19.65625 13.273438 C 21.355469 13.335938 24.191406 13.199219 24.925781 11.871094 C 26.015625 9.902344 26.195312 8.199219 27.480469 7.945312 C 27.480469 7.945312 24.328125 7.3125 23.019531 9.058594 C 22.152344 10.214844 21.28125 11.5 20.199219 12.328125 C 19.929688 12.523438 18.742188 13.246094 16.527344 12.835938 C 15.191406 12.433594 13.882812 11.933594 12.574219 11.304688 C 14.554688 11.617188 15.371094 11.636719 15.609375 11.632812 C 17.023438 11.816406 18.914062 11.828125 19.976562 10.847656 C 21.8125 9.148438 23.039062 7.867188 23.039062 7.867188 C 23.039062 7.867188 19.808594 7.382812 18.066406 8.179688 C 16.386719 8.945312 14.894531 11.234375 13.914062 11.265625 C 13.058594 11.242188 12.011719 10.996094 11.898438 10.972656 C 10.992188 10.503906 10.082031 9.984375 9.164062 9.386719 L 9.683594 9.535156 C 9.386719 9.488281 13.886719 10.363281 15.796875 8.667969 C 17.710938 6.96875 18.011719 6.914062 19.074219 6.359375 C 19.074219 6.359375 16.089844 4.921875 13.730469 6.265625 C 12.070312 7.214844 11.253906 8.53125 10.554688 9.171875 C 9.992188 9.457031 9.25 9.292969 8.789062 9.140625 C 8.492188 8.941406 8.195312 8.738281 7.894531 8.527344 C 7.210938 8.039062 6.515625 7.515625 5.8125 6.949219 C 9.574219 8.558594 11.164062 6.902344 11.164062 6.902344 C 8.816406 8.238281 5.171875 6.402344 5.097656 6.363281 C 4.691406 6.027344 4.28125 5.675781 3.867188 5.308594 C 4.929688 5.984375 6.734375 6.207031 6.734375 6.207031 C 8.019531 6.476562 9.820312 6.636719 11.105469 5.871094 C 13.3125 4.558594 15.214844 3.347656 15.214844 3.347656 C 15.214844 3.347656 11.847656 2.046875 9.871094 3.253906 C 8.539062 4.066406 7.273438 4.960938 6.316406 5.4375 C 5.316406 5.792969 3.425781 4.878906 3.347656 4.839844 C 2.800781 4.347656 2.25 3.832031 1.6875 3.289062 C 5.503906 4.84375 7.394531 3.074219 7.394531 3.074219 C 4.949219 4.359375 1.792969 3.152344 1.378906 2.984375 Z M 1.230469 9.050781 C 1.101562 10.542969 0.621094 11.398438 0.71875 11.136719 C 0.816406 10.878906 1.457031 9.253906 0.699219 6.554688 C -0.0625 3.855469 1.144531 2.761719 1.144531 2.761719 L 1.332031 2.964844 C -0.1875 4.664062 1.355469 7.554688 1.230469 9.050781 Z M 20.238281 7.0625 C 20.941406 5.800781 22.296875 6.136719 22.296875 6.136719 C 21.738281 7.117188 20.238281 7.0625 20.238281 7.0625 Z M 1.152344 7.644531 C 1.152344 7.644531 1.339844 5.835938 2.011719 5.128906 C 2.011719 5.128906 2.390625 6.9375 1.152344 7.644531 Z M 6.304688 16.558594 C 6.304688 16.558594 5.925781 15.476562 6.660156 13.988281 C 6.660156 13.988281 7.054688 15.640625 6.304688 16.558594 Z M 46.417969 11.664062 C 46.417969 11.664062 49.054688 12.011719 50.324219 11.273438 C 50.324219 11.273438 48.839844 10.179688 46.417969 11.664062 " fill-opacity="1" fill-rule="nonzero"/></g></g></g></g></g></g></g></g></g></g></svg>